<svg width="40" height="40" viewBox="0 0 40 40" fill="none" xmlns="http://www.w3.org/2000/svg">
<path d="M21.875 16.875C21.875 20 20 24.375 20 24.375M20.625 18.125C20.625 18.125 22.5 13.125 18.125 9.37505C13.75 5.62505 6.875 6.87505 6.875 6.87505C6.875 6.87505 6.875 11.875 10.625 15.625C14.375 19.375 20.625 18.125 20.625 18.125ZM21.875 15.625C21.875 15.625 20 10.625 24.375 6.87505C28.75 3.12505 35.625 4.37505 35.625 4.37505C35.625 4.37505 35.625 9.37505 31.875 13.125C28.125 16.875 21.875 15.625 21.875 15.625ZM11.875 24.375H28.125C28.125 24.375 29.375 35.625 20 35.625C10.625 35.625 11.875 24.375 11.875 24.375Z" stroke="#68870F" stroke-width="4" stroke-linecap="round" stroke-linejoin="round"/>
</svg>
