<svg width="40" height="40" viewBox="0 0 40 40" fill="none" xmlns="http://www.w3.org/2000/svg">
<path d="M8.33333 35C6.91667 35 5.91 34.3683 5.31333 33.105C4.71555 31.8406 4.86111 30.6667 5.75 29.5833L15 18.3333V8.33333H13.3333C12.8611 8.33333 12.465 8.17333 12.145 7.85333C11.8261 7.53444 11.6667 7.13889 11.6667 6.66667C11.6667 6.19444 11.8261 5.79833 12.145 5.47833C12.465 5.15944 12.8611 5 13.3333 5H26.6667C27.1389 5 27.5344 5.15944 27.8533 5.47833C28.1733 5.79833 28.3333 6.19444 28.3333 6.66667C28.3333 7.13889 28.1733 7.53444 27.8533 7.85333C27.5344 8.17333 27.1389 8.33333 26.6667 8.33333H25V18.3333L34.25 29.5833C35.1389 30.6667 35.2844 31.8406 34.6867 33.105C34.09 34.3683 33.0833 35 31.6667 35H8.33333ZM8.33333 31.6667H31.6667L21.6667 19.5V8.33333H18.3333V19.5L8.33333 31.6667Z" fill="#009284"/>
</svg>
