<svg width="40" height="40" viewBox="0 0 40 40" fill="none" xmlns="http://www.w3.org/2000/svg">
<path d="M20 18.3333C20.442 18.3333 20.866 18.5089 21.1785 18.8214C21.4911 19.134 21.6667 19.5579 21.6667 19.9999C21.6667 20.442 21.4911 20.8659 21.1785 21.1784C20.866 21.491 20.442 21.6666 20 21.6666C19.558 21.6666 19.1341 21.491 18.8215 21.1784C18.5089 20.8659 18.3333 20.442 18.3333 19.9999C18.3333 19.5579 18.5089 19.134 18.8215 18.8214C19.1341 18.5089 19.558 18.3333 20 18.3333ZM7.03333 7.03326C9.41667 4.64993 14.5833 5.71659 20 9.26659C25.4167 5.71659 30.5833 4.64993 32.9667 7.03326C35.35 9.41659 34.2833 14.5833 30.7333 19.9999C34.2833 25.4166 35.35 30.5833 32.9667 32.9666C30.5833 35.3499 25.4167 34.2833 20 30.7333C14.5833 34.2833 9.41667 35.3499 7.03333 32.9666C4.65 30.5833 5.71667 25.4166 9.26667 19.9999C5.71667 14.5833 4.65 9.41659 7.03333 7.03326ZM25.9 14.0999C26.9167 15.1333 27.85 16.1833 28.7167 17.2333C31.0167 13.6833 31.85 10.6333 30.6 9.39993C29.3667 8.14993 26.3167 8.98326 22.7667 11.2833C23.8167 12.1499 24.8667 13.0833 25.9 14.0999ZM14.1 25.8999C13.0833 24.8666 12.15 23.8166 11.2833 22.7666C8.98334 26.3166 8.15 29.3666 9.4 30.5999C10.6333 31.8499 13.6833 31.0166 17.2333 28.7166C16.1833 27.8499 15.1333 26.9166 14.1 25.8999ZM9.4 9.39993C8.15 10.6333 8.98334 13.6833 11.2833 17.2333C12.15 16.1833 13.0833 15.1333 14.1 14.0999C15.1333 13.0833 16.1833 12.1499 17.2333 11.2833C13.6833 8.98326 10.6333 8.14993 9.4 9.39993ZM16.4667 23.5333C17.6333 24.6999 18.8333 25.7666 20 26.7166C21.1667 25.7666 22.3667 24.6999 23.5333 23.5333C24.7 22.3666 25.7667 21.1666 26.7167 19.9999C25.7667 18.8333 24.7 17.6333 23.5333 16.4666C22.3667 15.2999 21.1667 14.2333 20 13.2833C18.8333 14.2333 17.6333 15.2999 16.4667 16.4666C15.3 17.6333 14.2333 18.8333 13.2833 19.9999C14.2333 21.1666 15.3 22.3666 16.4667 23.5333ZM30.6 30.5999C31.85 29.3666 31.0167 26.3166 28.7167 22.7666C27.85 23.8166 26.9167 24.8666 25.9 25.8999C24.8667 26.9166 23.8167 27.8499 22.7667 28.7166C26.3167 31.0166 29.3667 31.8499 30.6 30.5999Z" fill="#AC1E75"/>
</svg>
